ffmpeg version 7.1.1 Copyright (c) 2000-2025 the FFmpeg developers
  built with Apple clang version 17.0.0 (clang-1700.0.13.3)
  configuration: --prefix=/opt/homebrew/Cellar/ffmpeg/7.1.1_3 --enable-shared --enable-pthreads --enable-version3 --cc=clang --host-cflags= --host-ldflags='-Wl,-ld_classic' --enable-ffplay --enable-gnutls --enable-gpl --enable-libaom --enable-libaribb24 --enable-libbluray --enable-libdav1d --enable-libharfbuzz --enable-libjxl --enable-libmp3lame --enable-libopus --enable-librav1e --enable-librist --enable-librubberband --enable-libsnappy --enable-libsrt --enable-libssh --enable-libsvtav1 --enable-libtesseract --enable-libtheora --enable-libvidstab --enable-libvmaf --enable-libvorbis --enable-libvpx --enable-libwebp --enable-libx264 --enable-libx265 --enable-libxml2 --enable-libxvid --enable-lzma --enable-libfontconfig --enable-libfreetype --enable-frei0r --enable-libass --enable-libopencore-amrnb --enable-libopencore-amrwb --enable-libopenjpeg --enable-libspeex --enable-libsoxr --enable-libzmq --enable-libzimg --disable-libjack --disable-indev=jack --enable-videotoolbox --enable-audiotoolbox --enable-neon
  libavutil      59. 39.100 / 59. 39.100
  libavcodec     61. 19.101 / 61. 19.101
  libavformat    61.  7.100 / 61.  7.100
  libavdevice    61.  3.100 / 61.  3.100
  libavfilter    10.  4.100 / 10.  4.100
  libswscale      8.  3.100 /  8.  3.100
  libswresample   5.  3.100 /  5.  3.100
  libpostproc    58.  3.100 / 58.  3.100
2025-07-18 22:36:08.202 ffmpeg[40772:1779669] WARNING: Add NSCameraUseContinuityCameraDeviceType to your Info.plist to use AVCaptureDeviceTypeContinuityCamera.
objc[40772]: class `NSKVONotifying_AVCaptureScreenInput' not linked into application
objc[40772]: class `NSKVONotifying_AVCaptureScreenInput' not linked into application
objc[40772]: class `NSKVONotifying_AVCaptureScreenInput' not linked into application
[AVFoundation indev @ 0x157804080] Configuration of video device failed, falling back to default.
[avfoundation @ 0x156e06f30] Selected pixel format (yuv420p) is not supported by the input device.
[avfoundation @ 0x156e06f30] Supported pixel formats:
[avfoundation @ 0x156e06f30]   uyvy422
[avfoundation @ 0x156e06f30]   yuyv422
[avfoundation @ 0x156e06f30]   nv12
[avfoundation @ 0x156e06f30]   0rgb
[avfoundation @ 0x156e06f30]   bgr0
[avfoundation @ 0x156e06f30] Overriding selected pixel format to use uyvy422 instead.
[avfoundation @ 0x156e06f30] Stream #0: not enough frames to estimate rate; consider increasing probesize
Input #0, avfoundation, from '3':
  Duration: N/A, start: 138894.982000, bitrate: N/A
  Stream #0:0: Video: rawvideo (UYVY / 0x59565955), uyvy422, 3600x2338, 1000k tbr, 1000k tbn
Stream mapping:
  Stream #0:0 -> #0:0 (rawvideo (native) -> h264 (libx264))
Press [q] to stop, [?] for help
[libx264 @ 0x156e1bb50] MB rate (33075000000) > level limit (16711680)
[libx264 @ 0x156e1bb50] using cpu capabilities: ARMv8 NEON
[libx264 @ 0x156e1bb50] profile High 4:2:2, level 6.2, 4:2:2, 8-bit
[libx264 @ 0x156e1bb50] 264 - core 164 r3108 31e19f9 - H.264/MPEG-4 AVC codec - Copyleft 2003-2023 - http://www.videolan.org/x264.html - options: cabac=0 ref=1 deblock=0:0:0 analyse=0:0 me=dia subme=0 psy=1 psy_rd=1.00:0.00 mixed_ref=0 me_range=16 chroma_me=1 trellis=0 8x8dct=0 cqm=0 deadzone=21,11 fast_pskip=1 chroma_qp_offset=0 threads=15 lookahead_threads=2 sliced_threads=0 nr=0 decimate=1 interlaced=0 bluray_compat=0 constrained_intra=0 bframes=0 weightp=0 keyint=250 keyint_min=25 scenecut=0 intra_refresh=0 rc=crf mbtree=0 crf=23.0 qcomp=0.60 qpmin=0 qpmax=69 qpstep=4 ip_ratio=1.40 aq=0
Output #0, mp4, to '/Users/maxnovo/Desktop/qa.guru/18.08 Page_Object/resources/output.mp4':
  Metadata:
    encoder         : Lavf61.7.100
  Stream #0:0: Video: h264 (avc1 / 0x31637661), yuv422p(tv, progressive), 3600x2338, q=2-31, 1000k fps, 1000k tbn
      Metadata:
        encoder         : Lavc61.19.101 libx264
      Side data:
        cpb: bitrate max/min/avg: 0/0/0 buffer size: 0 vbv_delay: N/A
frame=    0 fps=0.0 q=0.0 size=       0KiB time=N/A bitrate=N/A speed=N/A    frame=   15 fps= 15 q=13.0 size=     768KiB time=00:00:00.46 bitrate=13482.5kbits/s speed=0.462x    frame=   30 fps= 20 q=19.0 size=     768KiB time=00:00:00.96 bitrate=6508.8kbits/s speed=0.638x    frame=   45 fps= 22 q=13.0 size=    1024KiB time=00:00:01.46 bitrate=5719.8kbits/s speed=0.727x    frame=   60 fps= 24 q=13.0 size=    1280KiB time=00:00:01.96 bitrate=5331.9kbits/s speed=0.779x    frame=   75 fps= 25 q=13.0 size=    1280KiB time=00:00:02.46 bitrate=4251.1kbits/s speed=0.816x    frame=   90 fps= 25 q=13.0 size=    1280KiB time=00:00:02.96 bitrate=3534.7kbits/s speed=0.841x    frame=  105 fps= 26 q=13.0 size=    1280KiB time=00:00:03.46 bitrate=3024.8kbits/s speed=0.86x    frame=  121 fps= 27 q=13.0 size=    1280KiB time=00:00:04.00 bitrate=2621.5kbits/s speed=0.882x    frame=  136 fps= 27 q=13.0 size=    1280KiB time=00:00:04.50 bitrate=2330.3kbits/s speed=0.893x    frame=  151 fps= 27 q=13.0 size=    1280KiB time=00:00:05.00 bitrate=2097.2kbits/s speed=0.903x    frame=  166 fps= 27 q=13.0 size=    1536KiB time=00:00:05.50 bitrate=2287.9kbits/s speed=0.91x    frame=  181 fps= 28 q=13.0 size=    1536KiB time=00:00:06.00 bitrate=2097.2kbits/s speed=0.917x    frame=  196 fps= 28 q=13.0 size=    1536KiB time=00:00:06.50 bitrate=1935.9kbits/s speed=0.922x    frame=  211 fps= 28 q=13.0 size=    1536KiB time=00:00:07.00 bitrate=1797.6kbits/s speed=0.926x    frame=  226 fps= 28 q=13.0 size=    1536KiB time=00:00:07.50 bitrate=1677.8kbits/s speed=0.93x    frame=  241 fps= 28 q=17.0 size=    1536KiB time=00:00:08.00 bitrate=1572.9kbits/s speed=0.934x    frame=  256 fps= 28 q=15.0 size=    2560KiB time=00:00:08.50 bitrate=2467.3kbits/s speed=0.937x    frame=  270 fps= 28 q=13.0 size=    2816KiB time=00:00:08.96 bitrate=2572.8kbits/s speed=0.937x    frame=  286 fps= 28 q=13.0 size=    2816KiB time=00:00:09.53 bitrate=2419.8kbits/s speed=0.946x    frame=  301 fps= 28 q=13.0 size=    3072KiB time=00:00:10.03 bitrate=2508.3kbits/s speed=0.949x    frame=  316 fps= 29 q=13.0 size=    3072KiB time=00:00:10.53 bitrate=2389.2kbits/s speed=0.951x    frame=  331 fps= 29 q=13.0 size=    3072KiB time=00:00:11.03 bitrate=2280.9kbits/s speed=0.953x    frame=  346 fps= 29 q=13.0 size=    3072KiB time=00:00:11.53 bitrate=2182.0kbits/s speed=0.955x    frame=  361 fps= 29 q=14.0 size=    3328KiB time=00:00:12.03 bitrate=2265.7kbits/s speed=0.956x    frame=  376 fps= 29 q=13.0 size=    3584KiB time=00:00:12.53 bitrate=2342.6kbits/s speed=0.957x    frame=  391 fps= 29 q=13.0 size=    3584KiB time=00:00:13.03 bitrate=2252.7kbits/s speed=0.959x    frame=  405 fps= 29 q=13.0 size=    3840KiB time=00:00:13.50 bitrate=2330.2kbits/s speed=0.958x    frame=  421 fps= 29 q=13.0 size=    3840KiB time=00:00:14.03 bitrate=2241.6kbits/s speed=0.961x    frame=  436 fps= 29 q=14.0 size=    3840KiB time=00:00:14.53 bitrate=2164.5kbits/s speed=0.962x    [out#0/mp4 @ 0x6000032b4c00] video:4327KiB audio:0KiB subtitle:0KiB other streams:0KiB global headers:0KiB muxing overhead: 0.117123%
frame=  458 fps= 30 q=-1.0 Lsize=    4332KiB time=00:00:15.26 bitrate=2324.3kbits/s speed=0.995x    
[libx264 @ 0x156e1bb50] frame I:2     Avg QP:15.00  size:756585
[libx264 @ 0x156e1bb50] frame P:456   Avg QP:13.64  size:  6396
[libx264 @ 0x156e1bb50] mb I  I16..4: 100.0%  0.0%  0.0%
[libx264 @ 0x156e1bb50] mb P  I16..4:  2.1%  0.0%  0.0%  P16..4:  0.7%  0.0%  0.0%  0.0%  0.0%    skip:97.2%
[libx264 @ 0x156e1bb50] coded y,uvDC,uvAC intra: 7.2% 15.1% 8.6% inter: 0.2% 0.4% 0.2%
[libx264 @ 0x156e1bb50] i16 v,h,dc,p: 87% 12%  1%  1%
[libx264 @ 0x156e1bb50] i8c dc,h,v,p: 66% 10% 23%  1%
[libx264 @ 0x156e1bb50] kb/s:2316.23
Exiting normally, received signal 15.
